<mxfile host="app.diagrams.net" modified="2021-08-17T00:48:25.764Z" agent="5.0 (Windows)" etag="twnttUUK-4d_7CV-zSy5" version="14.9.7" type="github" pages="2">
  <diagram id="40OqbkosAxlgUnEVLrqV" name="structureUML">
    <mxGraphModel dx="780" dy="778" grid="1" gridSize="10" guides="1" tooltips="1" connect="1" arrows="1" fold="1" page="1" pageScale="1" pageWidth="850" pageHeight="1100" math="0" shadow="0">
      <root>
        <mxCell id="0" />
        <mxCell id="1" parent="0" />
        <mxCell id="xtts4p5RJZJ0kuQn7VW0-3" value="&lt;div style=&quot;color: rgb(212 , 212 , 212) ; background-color: rgb(30 , 30 , 30) ; font-family: &amp;#34;consolas&amp;#34; , &amp;#34;courier new&amp;#34; , monospace ; font-weight: normal ; font-size: 14px ; line-height: 19px&quot;&gt;&lt;div&gt;&lt;span style=&quot;color: #dcdcaa&quot;&gt;parent&lt;/span&gt;&lt;span style=&quot;color: #d4d4d4&quot;&gt;(&lt;/span&gt;&lt;span style=&quot;color: #9cdcfe&quot;&gt;i&lt;/span&gt;&lt;span style=&quot;color: #d4d4d4&quot;&gt;)&lt;/span&gt;&lt;/div&gt;&lt;/div&gt;" style="shape=umlLifeline;perimeter=lifelinePerimeter;whiteSpace=wrap;html=1;container=1;collapsible=0;recursiveResize=0;outlineConnect=0;" parent="1" vertex="1">
          <mxGeometry x="730" y="40" width="100" height="500" as="geometry" />
        </mxCell>
        <mxCell id="xtts4p5RJZJ0kuQn7VW0-8" value="&lt;div style=&quot;color: rgb(212 , 212 , 212) ; background-color: rgb(30 , 30 , 30) ; font-family: &amp;#34;consolas&amp;#34; , &amp;#34;courier new&amp;#34; , monospace ; font-weight: normal ; font-size: 14px ; line-height: 19px&quot;&gt;&lt;div&gt;&lt;span style=&quot;color: #dcdcaa&quot;&gt;left&lt;/span&gt;&lt;span style=&quot;color: #d4d4d4&quot;&gt;(&lt;/span&gt;&lt;span style=&quot;color: #9cdcfe&quot;&gt;i&lt;/span&gt;&lt;span style=&quot;color: #d4d4d4&quot;&gt;)&lt;/span&gt;&lt;/div&gt;&lt;/div&gt;" style="shape=umlLifeline;perimeter=lifelinePerimeter;whiteSpace=wrap;html=1;container=1;collapsible=0;recursiveResize=0;outlineConnect=0;" parent="1" vertex="1">
          <mxGeometry x="623" y="40" width="100" height="670" as="geometry" />
        </mxCell>
        <mxCell id="xtts4p5RJZJ0kuQn7VW0-9" value="&lt;div style=&quot;color: rgb(212 , 212 , 212) ; background-color: rgb(30 , 30 , 30) ; font-family: &amp;#34;consolas&amp;#34; , &amp;#34;courier new&amp;#34; , monospace ; font-weight: normal ; font-size: 14px ; line-height: 19px&quot;&gt;&lt;div&gt;&lt;span style=&quot;color: #dcdcaa&quot;&gt;right&lt;/span&gt;&lt;span style=&quot;color: #d4d4d4&quot;&gt;(&lt;/span&gt;&lt;span style=&quot;color: #9cdcfe&quot;&gt;i&lt;/span&gt;&lt;span style=&quot;color: #d4d4d4&quot;&gt;)&lt;/span&gt;&lt;/div&gt;&lt;/div&gt;" style="shape=umlLifeline;perimeter=lifelinePerimeter;whiteSpace=wrap;html=1;container=1;collapsible=0;recursiveResize=0;outlineConnect=0;" parent="1" vertex="1">
          <mxGeometry x="513" y="40" width="100" height="590" as="geometry" />
        </mxCell>
        <mxCell id="xtts4p5RJZJ0kuQn7VW0-121" value="" style="html=1;points=[];perimeter=orthogonalPerimeter;" parent="xtts4p5RJZJ0kuQn7VW0-9" vertex="1">
          <mxGeometry x="45" y="180" width="10" height="40" as="geometry" />
        </mxCell>
        <mxCell id="xtts4p5RJZJ0kuQn7VW0-132" value="&lt;div&gt;int&lt;/div&gt;" style="html=1;verticalAlign=bottom;endArrow=open;dashed=1;endSize=8;" parent="xtts4p5RJZJ0kuQn7VW0-9" edge="1">
          <mxGeometry relative="1" as="geometry">
            <mxPoint x="147" y="280" as="sourcePoint" />
            <mxPoint x="-153" y="280" as="targetPoint" />
          </mxGeometry>
        </mxCell>
        <mxCell id="xtts4p5RJZJ0kuQn7VW0-10" value="&lt;div style=&quot;color: rgb(212 , 212 , 212) ; background-color: rgb(30 , 30 , 30) ; font-family: &amp;#34;consolas&amp;#34; , &amp;#34;courier new&amp;#34; , monospace ; font-weight: normal ; font-size: 14px ; line-height: 19px&quot;&gt;&lt;div&gt;&lt;span style=&quot;color: #dcdcaa&quot;&gt;ind&lt;/span&gt;&lt;span style=&quot;color: #d4d4d4&quot;&gt;(&lt;/span&gt;&lt;span style=&quot;color: #9cdcfe&quot;&gt;i&lt;/span&gt;&lt;span style=&quot;color: #d4d4d4&quot;&gt;)&lt;/span&gt;&lt;/div&gt;&lt;/div&gt;" style="shape=umlLifeline;perimeter=lifelinePerimeter;whiteSpace=wrap;html=1;container=1;collapsible=0;recursiveResize=0;outlineConnect=0;" parent="1" vertex="1">
          <mxGeometry x="403" y="40" width="100" height="710" as="geometry" />
        </mxCell>
        <mxCell id="xtts4p5RJZJ0kuQn7VW0-117" value="" style="html=1;points=[];perimeter=orthogonalPerimeter;dashed=1;" parent="xtts4p5RJZJ0kuQn7VW0-10" vertex="1">
          <mxGeometry x="45" y="110" width="10" height="210" as="geometry" />
        </mxCell>
        <mxCell id="xtts4p5RJZJ0kuQn7VW0-123" value="int" style="html=1;verticalAlign=bottom;endArrow=open;dashed=1;endSize=8;" parent="xtts4p5RJZJ0kuQn7VW0-10" edge="1">
          <mxGeometry x="0.0526" y="20" relative="1" as="geometry">
            <mxPoint x="147" y="210" as="sourcePoint" />
            <mxPoint x="-43" y="210" as="targetPoint" />
            <mxPoint as="offset" />
          </mxGeometry>
        </mxCell>
        <mxCell id="xtts4p5RJZJ0kuQn7VW0-11" value="&lt;div style=&quot;color: rgb(212 , 212 , 212) ; background-color: rgb(30 , 30 , 30) ; font-family: &amp;#34;consolas&amp;#34; , &amp;#34;courier new&amp;#34; , monospace ; font-weight: normal ; line-height: 19px&quot;&gt;&lt;div&gt;&lt;font style=&quot;font-size: 12px&quot;&gt;&lt;span style=&quot;color: #dcdcaa&quot;&gt;maxHeapify&lt;/span&gt;&lt;span style=&quot;color: #d4d4d4&quot;&gt;&lt;br&gt;&lt;/span&gt;&lt;/font&gt;&lt;/div&gt;&lt;div&gt;&lt;font style=&quot;font-size: 12px&quot;&gt;&lt;span style=&quot;color: #d4d4d4&quot;&gt;(&lt;/span&gt;&lt;span style=&quot;color: #9cdcfe&quot;&gt;A&lt;/span&gt;&lt;span style=&quot;color: #d4d4d4&quot;&gt;,&amp;nbsp;&lt;/span&gt;&lt;span style=&quot;color: #9cdcfe&quot;&gt;i&lt;/span&gt;&lt;span style=&quot;color: #d4d4d4&quot;&gt;,&amp;nbsp;&lt;/span&gt;&lt;span style=&quot;color: #9cdcfe&quot;&gt;size&lt;/span&gt;&lt;span style=&quot;color: #d4d4d4&quot;&gt;)&lt;/span&gt;&lt;/font&gt;&lt;/div&gt;&lt;/div&gt;" style="shape=umlLifeline;perimeter=lifelinePerimeter;whiteSpace=wrap;html=1;container=1;collapsible=0;recursiveResize=0;outlineConnect=0;" parent="1" vertex="1">
          <mxGeometry x="297" y="40" width="100" height="780" as="geometry" />
        </mxCell>
        <mxCell id="xtts4p5RJZJ0kuQn7VW0-112" value="" style="html=1;points=[];perimeter=orthogonalPerimeter;" parent="xtts4p5RJZJ0kuQn7VW0-11" vertex="1">
          <mxGeometry x="45" y="100" width="10" height="310" as="geometry" />
        </mxCell>
        <mxCell id="xtts4p5RJZJ0kuQn7VW0-122" value="int" style="html=1;verticalAlign=bottom;endArrow=block;" parent="xtts4p5RJZJ0kuQn7VW0-11" edge="1">
          <mxGeometry width="80" relative="1" as="geometry">
            <mxPoint x="58" y="190" as="sourcePoint" />
            <mxPoint x="260.5" y="190" as="targetPoint" />
            <Array as="points">
              <mxPoint x="198" y="190" />
            </Array>
          </mxGeometry>
        </mxCell>
        <UserObject label="int" tooltip="" id="xtts4p5RJZJ0kuQn7VW0-130">
          <mxCell style="html=1;verticalAlign=bottom;endArrow=block;" parent="xtts4p5RJZJ0kuQn7VW0-11" target="xtts4p5RJZJ0kuQn7VW0-8" edge="1">
            <mxGeometry width="80" relative="1" as="geometry">
              <mxPoint x="53" y="250" as="sourcePoint" />
              <mxPoint x="133" y="250" as="targetPoint" />
            </mxGeometry>
          </mxCell>
        </UserObject>
        <mxCell id="xtts4p5RJZJ0kuQn7VW0-135" value="" style="html=1;points=[];perimeter=orthogonalPerimeter;dashed=1;" parent="xtts4p5RJZJ0kuQn7VW0-11" vertex="1">
          <mxGeometry x="45" y="360" width="10" height="40" as="geometry" />
        </mxCell>
        <mxCell id="xtts4p5RJZJ0kuQn7VW0-136" value="self call" style="edgeStyle=orthogonalEdgeStyle;html=1;align=left;spacingLeft=2;endArrow=block;rounded=0;entryX=1;entryY=0;" parent="xtts4p5RJZJ0kuQn7VW0-11" target="xtts4p5RJZJ0kuQn7VW0-135" edge="1">
          <mxGeometry relative="1" as="geometry">
            <mxPoint x="50" y="340" as="sourcePoint" />
            <Array as="points">
              <mxPoint x="80" y="340" />
            </Array>
          </mxGeometry>
        </mxCell>
        <mxCell id="xtts4p5RJZJ0kuQn7VW0-12" value="&lt;div style=&quot;color: rgb(212 , 212 , 212) ; background-color: rgb(30 , 30 , 30) ; font-family: &amp;#34;consolas&amp;#34; , &amp;#34;courier new&amp;#34; , monospace ; font-weight: normal ; font-size: 14px ; line-height: 19px&quot;&gt;&lt;div&gt;&lt;span style=&quot;color: #dcdcaa&quot;&gt;buildMaxHeap&lt;/span&gt;&lt;span style=&quot;color: #d4d4d4&quot;&gt;&lt;br&gt;&lt;/span&gt;&lt;/div&gt;&lt;div&gt;&lt;span style=&quot;color: #d4d4d4&quot;&gt;(&lt;/span&gt;&lt;span style=&quot;color: #9cdcfe&quot;&gt;A&lt;/span&gt;&lt;span style=&quot;color: #d4d4d4&quot;&gt;,&amp;nbsp;&lt;/span&gt;&lt;span style=&quot;color: #9cdcfe&quot;&gt;size&lt;/span&gt;&lt;span style=&quot;color: #d4d4d4&quot;&gt;)&lt;/span&gt;&lt;/div&gt;&lt;/div&gt;" style="shape=umlLifeline;perimeter=lifelinePerimeter;whiteSpace=wrap;html=1;container=1;collapsible=0;recursiveResize=0;outlineConnect=0;" parent="1" vertex="1">
          <mxGeometry x="170" y="40" width="110" height="440" as="geometry" />
        </mxCell>
        <mxCell id="xtts4p5RJZJ0kuQn7VW0-106" value="" style="html=1;points=[];perimeter=orthogonalPerimeter;" parent="xtts4p5RJZJ0kuQn7VW0-12" vertex="1">
          <mxGeometry x="50" y="80" width="10" height="350" as="geometry" />
        </mxCell>
        <mxCell id="xtts4p5RJZJ0kuQn7VW0-109" style="edgeStyle=orthogonalEdgeStyle;rounded=0;orthogonalLoop=1;jettySize=auto;html=1;entryX=-0.1;entryY=0.289;entryDx=0;entryDy=0;entryPerimeter=0;exitX=0.1;exitY=0.865;exitDx=0;exitDy=0;exitPerimeter=0;" parent="xtts4p5RJZJ0kuQn7VW0-12" source="xtts4p5RJZJ0kuQn7VW0-106" target="xtts4p5RJZJ0kuQn7VW0-106" edge="1">
          <mxGeometry relative="1" as="geometry">
            <Array as="points">
              <mxPoint y="383" />
              <mxPoint y="106" />
              <mxPoint x="49" y="106" />
            </Array>
          </mxGeometry>
        </mxCell>
        <mxCell id="xtts4p5RJZJ0kuQn7VW0-110" value="loop" style="edgeLabel;html=1;align=center;verticalAlign=middle;resizable=0;points=[];" parent="xtts4p5RJZJ0kuQn7VW0-109" vertex="1" connectable="0">
          <mxGeometry x="-0.6619" y="2" relative="1" as="geometry">
            <mxPoint y="-42" as="offset" />
          </mxGeometry>
        </mxCell>
        <mxCell id="xtts4p5RJZJ0kuQn7VW0-111" value="A(list), i(int), size(int)" style="html=1;verticalAlign=bottom;endArrow=block;" parent="xtts4p5RJZJ0kuQn7VW0-12" source="xtts4p5RJZJ0kuQn7VW0-106" edge="1">
          <mxGeometry width="80" relative="1" as="geometry">
            <mxPoint x="70" y="110" as="sourcePoint" />
            <mxPoint x="170" y="110" as="targetPoint" />
          </mxGeometry>
        </mxCell>
        <mxCell id="xtts4p5RJZJ0kuQn7VW0-137" value="A(list)" style="html=1;verticalAlign=bottom;endArrow=open;dashed=1;endSize=8;entryX=1.2;entryY=0.857;entryDx=0;entryDy=0;entryPerimeter=0;" parent="xtts4p5RJZJ0kuQn7VW0-12" target="xtts4p5RJZJ0kuQn7VW0-106" edge="1">
          <mxGeometry relative="1" as="geometry">
            <mxPoint x="170" y="380" as="sourcePoint" />
            <mxPoint x="90" y="380" as="targetPoint" />
          </mxGeometry>
        </mxCell>
        <mxCell id="xtts4p5RJZJ0kuQn7VW0-14" value="&lt;div style=&quot;color: rgb(212 , 212 , 212) ; background-color: rgb(30 , 30 , 30) ; font-family: &amp;#34;consolas&amp;#34; , &amp;#34;courier new&amp;#34; , monospace ; font-weight: normal ; font-size: 14px ; line-height: 19px&quot;&gt;&lt;div&gt;&lt;span style=&quot;color: #dcdcaa&quot;&gt;heapsort&lt;/span&gt;&lt;span style=&quot;color: #d4d4d4&quot;&gt;(&lt;/span&gt;&lt;span style=&quot;color: #9cdcfe&quot;&gt;A&lt;/span&gt;&lt;span style=&quot;color: #d4d4d4&quot;&gt;)&lt;/span&gt;&lt;/div&gt;&lt;/div&gt;" style="shape=umlLifeline;perimeter=lifelinePerimeter;whiteSpace=wrap;html=1;container=1;collapsible=0;recursiveResize=0;outlineConnect=0;" parent="1" vertex="1">
          <mxGeometry x="30" y="40" width="120" height="880" as="geometry" />
        </mxCell>
        <mxCell id="xtts4p5RJZJ0kuQn7VW0-107" value="A(list), size(int)" style="html=1;verticalAlign=bottom;endArrow=block;" parent="xtts4p5RJZJ0kuQn7VW0-14" target="xtts4p5RJZJ0kuQn7VW0-12" edge="1">
          <mxGeometry width="80" relative="1" as="geometry">
            <mxPoint x="70" y="90" as="sourcePoint" />
            <mxPoint x="150" y="90" as="targetPoint" />
          </mxGeometry>
        </mxCell>
        <mxCell id="xtts4p5RJZJ0kuQn7VW0-138" value="A(list)" style="html=1;verticalAlign=bottom;endArrow=open;dashed=1;endSize=8;" parent="xtts4p5RJZJ0kuQn7VW0-14" edge="1">
          <mxGeometry relative="1" as="geometry">
            <mxPoint x="180" y="420" as="sourcePoint" />
            <mxPoint x="70" y="420" as="targetPoint" />
          </mxGeometry>
        </mxCell>
        <mxCell id="xtts4p5RJZJ0kuQn7VW0-66" value="" style="html=1;points=[];perimeter=orthogonalPerimeter;" parent="1" vertex="1">
          <mxGeometry x="85" y="120" width="10" height="730" as="geometry" />
        </mxCell>
        <mxCell id="xtts4p5RJZJ0kuQn7VW0-120" value="int" style="html=1;verticalAlign=bottom;endArrow=open;dashed=1;endSize=8;" parent="1" edge="1">
          <mxGeometry y="21" relative="1" as="geometry">
            <mxPoint x="440" y="350" as="sourcePoint" />
            <mxPoint x="360" y="350" as="targetPoint" />
            <mxPoint as="offset" />
          </mxGeometry>
        </mxCell>
        <mxCell id="xtts4p5RJZJ0kuQn7VW0-116" value="int" style="html=1;verticalAlign=bottom;endArrow=block;" parent="1" edge="1">
          <mxGeometry x="-0.1556" width="80" relative="1" as="geometry">
            <mxPoint x="352" y="160" as="sourcePoint" />
            <mxPoint x="442" y="160" as="targetPoint" />
            <mxPoint as="offset" />
          </mxGeometry>
        </mxCell>
        <mxCell id="xtts4p5RJZJ0kuQn7VW0-129" value="" style="html=1;points=[];perimeter=orthogonalPerimeter;" parent="1" vertex="1">
          <mxGeometry x="668" y="280" width="10" height="40" as="geometry" />
        </mxCell>
        <mxCell id="xtts4p5RJZJ0kuQn7VW0-156" value="" style="html=1;points=[];perimeter=orthogonalPerimeter;" parent="1" vertex="1">
          <mxGeometry x="558" y="576" width="10" height="40" as="geometry" />
        </mxCell>
        <mxCell id="xtts4p5RJZJ0kuQn7VW0-157" value="&lt;div&gt;int&lt;/div&gt;" style="html=1;verticalAlign=bottom;endArrow=open;dashed=1;endSize=8;" parent="1" edge="1">
          <mxGeometry relative="1" as="geometry">
            <mxPoint x="660" y="676" as="sourcePoint" />
            <mxPoint x="360" y="676" as="targetPoint" />
          </mxGeometry>
        </mxCell>
        <mxCell id="xtts4p5RJZJ0kuQn7VW0-158" value="" style="html=1;points=[];perimeter=orthogonalPerimeter;dashed=1;" parent="1" vertex="1">
          <mxGeometry x="448" y="506" width="10" height="210" as="geometry" />
        </mxCell>
        <mxCell id="xtts4p5RJZJ0kuQn7VW0-159" value="int" style="html=1;verticalAlign=bottom;endArrow=open;dashed=1;endSize=8;" parent="1" edge="1">
          <mxGeometry x="0.0526" y="20" relative="1" as="geometry">
            <mxPoint x="550" y="606" as="sourcePoint" />
            <mxPoint x="360" y="606" as="targetPoint" />
            <mxPoint as="offset" />
          </mxGeometry>
        </mxCell>
        <mxCell id="xtts4p5RJZJ0kuQn7VW0-160" value="" style="html=1;points=[];perimeter=orthogonalPerimeter;" parent="1" vertex="1">
          <mxGeometry x="342" y="496" width="10" height="310" as="geometry" />
        </mxCell>
        <mxCell id="xtts4p5RJZJ0kuQn7VW0-161" value="int" style="html=1;verticalAlign=bottom;endArrow=block;" parent="1" edge="1">
          <mxGeometry width="80" relative="1" as="geometry">
            <mxPoint x="355" y="586" as="sourcePoint" />
            <mxPoint x="557.5" y="586" as="targetPoint" />
            <Array as="points">
              <mxPoint x="495" y="586" />
            </Array>
          </mxGeometry>
        </mxCell>
        <UserObject label="int" tooltip="" id="xtts4p5RJZJ0kuQn7VW0-162">
          <mxCell style="html=1;verticalAlign=bottom;endArrow=block;" parent="1" edge="1">
            <mxGeometry width="80" relative="1" as="geometry">
              <mxPoint x="350" y="646" as="sourcePoint" />
              <mxPoint x="672.5" y="646" as="targetPoint" />
            </mxGeometry>
          </mxCell>
        </UserObject>
        <mxCell id="xtts4p5RJZJ0kuQn7VW0-163" value="" style="html=1;points=[];perimeter=orthogonalPerimeter;dashed=1;" parent="1" vertex="1">
          <mxGeometry x="342" y="756" width="10" height="40" as="geometry" />
        </mxCell>
        <mxCell id="xtts4p5RJZJ0kuQn7VW0-164" value="self call" style="edgeStyle=orthogonalEdgeStyle;html=1;align=left;spacingLeft=2;endArrow=block;rounded=0;entryX=1;entryY=0;" parent="1" target="xtts4p5RJZJ0kuQn7VW0-163" edge="1">
          <mxGeometry relative="1" as="geometry">
            <mxPoint x="347" y="736" as="sourcePoint" />
            <Array as="points">
              <mxPoint x="377" y="736" />
            </Array>
          </mxGeometry>
        </mxCell>
        <mxCell id="xtts4p5RJZJ0kuQn7VW0-165" value="int" style="html=1;verticalAlign=bottom;endArrow=open;dashed=1;endSize=8;" parent="1" edge="1">
          <mxGeometry y="21" relative="1" as="geometry">
            <mxPoint x="440" y="706" as="sourcePoint" />
            <mxPoint x="360" y="706" as="targetPoint" />
            <mxPoint as="offset" />
          </mxGeometry>
        </mxCell>
        <mxCell id="xtts4p5RJZJ0kuQn7VW0-166" value="int" style="html=1;verticalAlign=bottom;endArrow=block;" parent="1" edge="1">
          <mxGeometry x="-0.1556" width="80" relative="1" as="geometry">
            <mxPoint x="352" y="516" as="sourcePoint" />
            <mxPoint x="442" y="516" as="targetPoint" />
            <mxPoint as="offset" />
          </mxGeometry>
        </mxCell>
        <mxCell id="xtts4p5RJZJ0kuQn7VW0-167" value="" style="html=1;points=[];perimeter=orthogonalPerimeter;" parent="1" vertex="1">
          <mxGeometry x="668" y="636" width="10" height="40" as="geometry" />
        </mxCell>
        <mxCell id="xtts4p5RJZJ0kuQn7VW0-169" value="A(list), i(int), size(int)" style="html=1;verticalAlign=bottom;endArrow=block;" parent="1" edge="1">
          <mxGeometry width="80" relative="1" as="geometry">
            <mxPoint x="100" y="510" as="sourcePoint" />
            <mxPoint x="340" y="510" as="targetPoint" />
          </mxGeometry>
        </mxCell>
        <mxCell id="xtts4p5RJZJ0kuQn7VW0-170" value="A(list)" style="html=1;verticalAlign=bottom;endArrow=open;dashed=1;endSize=8;" parent="1" edge="1">
          <mxGeometry relative="1" as="geometry">
            <mxPoint x="340" y="796" as="sourcePoint" />
            <mxPoint x="100" y="796" as="targetPoint" />
          </mxGeometry>
        </mxCell>
        <mxCell id="xtts4p5RJZJ0kuQn7VW0-171" style="edgeStyle=orthogonalEdgeStyle;rounded=0;orthogonalLoop=1;jettySize=auto;html=1;entryX=0;entryY=0.518;entryDx=0;entryDy=0;entryPerimeter=0;exitX=0;exitY=0.916;exitDx=0;exitDy=0;exitPerimeter=0;" parent="1" source="xtts4p5RJZJ0kuQn7VW0-66" target="xtts4p5RJZJ0kuQn7VW0-66" edge="1">
          <mxGeometry relative="1" as="geometry">
            <Array as="points">
              <mxPoint x="85" y="800" />
              <mxPoint x="20" y="800" />
              <mxPoint x="20" y="498" />
            </Array>
          </mxGeometry>
        </mxCell>
      </root>
    </mxGraphModel>
  </diagram>
  <diagram name="maxPriority structureUML" id="edA82mGDYcjBV-F5n5Ma">
    <mxGraphModel dx="918" dy="915" grid="1" gridSize="10" guides="1" tooltips="1" connect="1" arrows="1" fold="1" page="1" pageScale="1" pageWidth="850" pageHeight="1100" math="0" shadow="0">
      <root>
        <mxCell id="imOH5e1PaBa-bkASGdSj-0" />
        <mxCell id="imOH5e1PaBa-bkASGdSj-1" parent="imOH5e1PaBa-bkASGdSj-0" />
        <mxCell id="imOH5e1PaBa-bkASGdSj-2" value="&lt;div style=&quot;color: rgb(212 , 212 , 212) ; background-color: rgb(30 , 30 , 30) ; font-family: &amp;#34;consolas&amp;#34; , &amp;#34;courier new&amp;#34; , monospace ; font-weight: normal ; font-size: 14px ; line-height: 19px&quot;&gt;&lt;div&gt;&lt;span style=&quot;color: #dcdcaa&quot;&gt;parent&lt;/span&gt;&lt;span style=&quot;color: #d4d4d4&quot;&gt;(&lt;/span&gt;&lt;span style=&quot;color: #9cdcfe&quot;&gt;i&lt;/span&gt;&lt;span style=&quot;color: #d4d4d4&quot;&gt;)&lt;/span&gt;&lt;/div&gt;&lt;/div&gt;" style="shape=umlLifeline;perimeter=lifelinePerimeter;whiteSpace=wrap;html=1;container=1;collapsible=0;recursiveResize=0;outlineConnect=0;" vertex="1" parent="imOH5e1PaBa-bkASGdSj-1">
          <mxGeometry x="530" y="40" width="100" height="320" as="geometry" />
        </mxCell>
        <mxCell id="imOH5e1PaBa-bkASGdSj-52" value="" style="html=1;points=[];perimeter=orthogonalPerimeter;" vertex="1" parent="imOH5e1PaBa-bkASGdSj-2">
          <mxGeometry x="45" y="220" width="10" height="80" as="geometry" />
        </mxCell>
        <mxCell id="imOH5e1PaBa-bkASGdSj-7" value="&lt;div style=&quot;color: rgb(212 , 212 , 212) ; background-color: rgb(30 , 30 , 30) ; font-family: &amp;#34;consolas&amp;#34; , &amp;#34;courier new&amp;#34; , monospace ; font-weight: normal ; font-size: 14px ; line-height: 19px&quot;&gt;&lt;div&gt;&lt;span style=&quot;color: #dcdcaa&quot;&gt;ind&lt;/span&gt;&lt;span style=&quot;color: #d4d4d4&quot;&gt;(&lt;/span&gt;&lt;span style=&quot;color: #9cdcfe&quot;&gt;i&lt;/span&gt;&lt;span style=&quot;color: #d4d4d4&quot;&gt;)&lt;/span&gt;&lt;/div&gt;&lt;/div&gt;" style="shape=umlLifeline;perimeter=lifelinePerimeter;whiteSpace=wrap;html=1;container=1;collapsible=0;recursiveResize=0;outlineConnect=0;" vertex="1" parent="imOH5e1PaBa-bkASGdSj-1">
          <mxGeometry x="403" y="40" width="100" height="360" as="geometry" />
        </mxCell>
        <mxCell id="imOH5e1PaBa-bkASGdSj-8" value="" style="html=1;points=[];perimeter=orthogonalPerimeter;dashed=1;" vertex="1" parent="imOH5e1PaBa-bkASGdSj-7">
          <mxGeometry x="45" y="130" width="10" height="210" as="geometry" />
        </mxCell>
        <mxCell id="imOH5e1PaBa-bkASGdSj-53" value="return" style="html=1;verticalAlign=bottom;endArrow=open;dashed=1;endSize=8;entryX=1.171;entryY=0.705;entryDx=0;entryDy=0;entryPerimeter=0;" edge="1" parent="imOH5e1PaBa-bkASGdSj-7" target="imOH5e1PaBa-bkASGdSj-47">
          <mxGeometry relative="1" as="geometry">
            <mxPoint x="167" y="280" as="sourcePoint" />
            <mxPoint x="87" y="280" as="targetPoint" />
            <Array as="points">
              <mxPoint x="-113" y="280" />
            </Array>
          </mxGeometry>
        </mxCell>
        <mxCell id="imOH5e1PaBa-bkASGdSj-62" value="int" style="edgeLabel;html=1;align=center;verticalAlign=middle;resizable=0;points=[];" vertex="1" connectable="0" parent="imOH5e1PaBa-bkASGdSj-53">
          <mxGeometry x="0.5485" y="1" relative="1" as="geometry">
            <mxPoint x="98" y="9" as="offset" />
          </mxGeometry>
        </mxCell>
        <mxCell id="imOH5e1PaBa-bkASGdSj-44" value="&lt;div style=&quot;color: rgb(212 , 212 , 212) ; background-color: rgb(30 , 30 , 30) ; font-family: &amp;#34;consolas&amp;#34; , &amp;#34;courier new&amp;#34; , monospace ; font-weight: normal ; font-size: 14px ; line-height: 19px&quot;&gt;&lt;div&gt;&lt;span style=&quot;color: #dcdcaa&quot;&gt;maxHeapInsert&lt;/span&gt;&lt;/div&gt;&lt;div&gt;&lt;span style=&quot;color: #dcdcaa&quot;&gt;&lt;/span&gt;&lt;span style=&quot;color: #d4d4d4&quot;&gt;(&lt;/span&gt;&lt;span style=&quot;color: #9cdcfe&quot;&gt;A&lt;/span&gt;&lt;span style=&quot;color: #d4d4d4&quot;&gt;,&amp;nbsp;&lt;/span&gt;&lt;span style=&quot;color: #9cdcfe&quot;&gt;key&lt;/span&gt;&lt;span style=&quot;color: #d4d4d4&quot;&gt;):&lt;/span&gt;&lt;/div&gt;&lt;/div&gt;" style="shape=umlLifeline;perimeter=lifelinePerimeter;whiteSpace=wrap;html=1;container=1;collapsible=0;recursiveResize=0;outlineConnect=0;" vertex="1" parent="imOH5e1PaBa-bkASGdSj-1">
          <mxGeometry x="10" y="40" width="120" height="440" as="geometry" />
        </mxCell>
        <mxCell id="imOH5e1PaBa-bkASGdSj-45" value="" style="html=1;points=[];perimeter=orthogonalPerimeter;" vertex="1" parent="imOH5e1PaBa-bkASGdSj-44">
          <mxGeometry x="55" y="70" width="10" height="330" as="geometry" />
        </mxCell>
        <mxCell id="imOH5e1PaBa-bkASGdSj-49" value="dispatch" style="html=1;verticalAlign=bottom;endArrow=block;entryX=-0.114;entryY=0.113;entryDx=0;entryDy=0;entryPerimeter=0;" edge="1" parent="imOH5e1PaBa-bkASGdSj-44" target="imOH5e1PaBa-bkASGdSj-47">
          <mxGeometry width="80" relative="1" as="geometry">
            <mxPoint x="70" y="120" as="sourcePoint" />
            <mxPoint x="150" y="120" as="targetPoint" />
          </mxGeometry>
        </mxCell>
        <mxCell id="imOH5e1PaBa-bkASGdSj-59" value="list, int, number" style="edgeLabel;html=1;align=center;verticalAlign=middle;resizable=0;points=[];" vertex="1" connectable="0" parent="imOH5e1PaBa-bkASGdSj-49">
          <mxGeometry x="0.5977" y="-2" relative="1" as="geometry">
            <mxPoint x="-45" y="8" as="offset" />
          </mxGeometry>
        </mxCell>
        <mxCell id="imOH5e1PaBa-bkASGdSj-55" value="return" style="html=1;verticalAlign=bottom;endArrow=open;dashed=1;endSize=8;" edge="1" parent="imOH5e1PaBa-bkASGdSj-44">
          <mxGeometry relative="1" as="geometry">
            <mxPoint x="190" y="360" as="sourcePoint" />
            <mxPoint x="70" y="360" as="targetPoint" />
          </mxGeometry>
        </mxCell>
        <mxCell id="imOH5e1PaBa-bkASGdSj-64" value="list" style="edgeLabel;html=1;align=center;verticalAlign=middle;resizable=0;points=[];" vertex="1" connectable="0" parent="imOH5e1PaBa-bkASGdSj-55">
          <mxGeometry x="-0.602" y="-1" relative="1" as="geometry">
            <mxPoint x="-36" y="11" as="offset" />
          </mxGeometry>
        </mxCell>
        <mxCell id="imOH5e1PaBa-bkASGdSj-46" value="&lt;div style=&quot;color: rgb(212 , 212 , 212) ; background-color: rgb(30 , 30 , 30) ; font-family: &amp;#34;consolas&amp;#34; , &amp;#34;courier new&amp;#34; , monospace ; font-weight: normal ; font-size: 14px ; line-height: 19px&quot;&gt;&lt;div&gt;&lt;span style=&quot;color: #dcdcaa&quot;&gt;heapIncreaseKey&lt;/span&gt;&lt;span style=&quot;color: #d4d4d4&quot;&gt;&lt;br&gt;&lt;/span&gt;&lt;/div&gt;&lt;div&gt;&lt;span style=&quot;color: #d4d4d4&quot;&gt;(&lt;/span&gt;&lt;span style=&quot;color: #9cdcfe&quot;&gt;A&lt;/span&gt;&lt;span style=&quot;color: #d4d4d4&quot;&gt;,&amp;nbsp;&lt;/span&gt;&lt;span style=&quot;color: #9cdcfe&quot;&gt;i&lt;/span&gt;&lt;span style=&quot;color: #d4d4d4&quot;&gt;,&amp;nbsp;&lt;/span&gt;&lt;span style=&quot;color: #9cdcfe&quot;&gt;key&lt;/span&gt;&lt;span style=&quot;color: #d4d4d4&quot;&gt;):&lt;/span&gt;&lt;/div&gt;&lt;/div&gt;" style="shape=umlLifeline;perimeter=lifelinePerimeter;whiteSpace=wrap;html=1;container=1;collapsible=0;recursiveResize=0;outlineConnect=0;" vertex="1" parent="imOH5e1PaBa-bkASGdSj-1">
          <mxGeometry x="140" y="40" width="130" height="390" as="geometry" />
        </mxCell>
        <mxCell id="imOH5e1PaBa-bkASGdSj-47" value="" style="html=1;points=[];perimeter=orthogonalPerimeter;" vertex="1" parent="imOH5e1PaBa-bkASGdSj-46">
          <mxGeometry x="60" y="90" width="10" height="270" as="geometry" />
        </mxCell>
        <mxCell id="imOH5e1PaBa-bkASGdSj-48" style="edgeStyle=orthogonalEdgeStyle;rounded=0;orthogonalLoop=1;jettySize=auto;html=1;" edge="1" parent="imOH5e1PaBa-bkASGdSj-46" source="imOH5e1PaBa-bkASGdSj-47">
          <mxGeometry relative="1" as="geometry">
            <mxPoint x="65" y="210" as="targetPoint" />
            <Array as="points">
              <mxPoint x="10" y="340" />
              <mxPoint x="10" y="210" />
              <mxPoint x="56" y="210" />
            </Array>
          </mxGeometry>
        </mxCell>
        <mxCell id="imOH5e1PaBa-bkASGdSj-50" value="dispatch" style="html=1;verticalAlign=bottom;endArrow=block;" edge="1" parent="imOH5e1PaBa-bkASGdSj-46">
          <mxGeometry width="80" relative="1" as="geometry">
            <mxPoint x="70" y="140" as="sourcePoint" />
            <mxPoint x="300" y="140" as="targetPoint" />
          </mxGeometry>
        </mxCell>
        <mxCell id="imOH5e1PaBa-bkASGdSj-60" value="int" style="edgeLabel;html=1;align=center;verticalAlign=middle;resizable=0;points=[];" vertex="1" connectable="0" parent="imOH5e1PaBa-bkASGdSj-50">
          <mxGeometry x="0.2092" y="3" relative="1" as="geometry">
            <mxPoint x="-19" y="13" as="offset" />
          </mxGeometry>
        </mxCell>
        <mxCell id="imOH5e1PaBa-bkASGdSj-51" value="dispatch" style="html=1;verticalAlign=bottom;endArrow=block;" edge="1" parent="imOH5e1PaBa-bkASGdSj-46" target="imOH5e1PaBa-bkASGdSj-2">
          <mxGeometry width="80" relative="1" as="geometry">
            <mxPoint x="70" y="230" as="sourcePoint" />
            <mxPoint x="150" y="230" as="targetPoint" />
          </mxGeometry>
        </mxCell>
        <mxCell id="imOH5e1PaBa-bkASGdSj-61" value="int" style="edgeLabel;html=1;align=center;verticalAlign=middle;resizable=0;points=[];" vertex="1" connectable="0" parent="imOH5e1PaBa-bkASGdSj-51">
          <mxGeometry x="0.1793" y="4" relative="1" as="geometry">
            <mxPoint x="-38" y="9" as="offset" />
          </mxGeometry>
        </mxCell>
        <mxCell id="imOH5e1PaBa-bkASGdSj-54" value="return" style="html=1;verticalAlign=bottom;endArrow=open;dashed=1;endSize=8;entryX=1.314;entryY=0.88;entryDx=0;entryDy=0;entryPerimeter=0;" edge="1" parent="imOH5e1PaBa-bkASGdSj-1" target="imOH5e1PaBa-bkASGdSj-47">
          <mxGeometry relative="1" as="geometry">
            <mxPoint x="440" y="370" as="sourcePoint" />
            <mxPoint x="360" y="370" as="targetPoint" />
          </mxGeometry>
        </mxCell>
        <mxCell id="imOH5e1PaBa-bkASGdSj-63" value="int" style="edgeLabel;html=1;align=center;verticalAlign=middle;resizable=0;points=[];" vertex="1" connectable="0" parent="imOH5e1PaBa-bkASGdSj-54">
          <mxGeometry x="-0.4578" y="3" relative="1" as="geometry">
            <mxPoint x="-49" as="offset" />
          </mxGeometry>
        </mxCell>
      </root>
    </mxGraphModel>
  </diagram>
</mxfile>
